<svg xmlns="http://www.w3.org/2000/svg" version="1.1" xmlns:xlink="http://www.w3.org/1999/xlink" xmlns:svgjs="http://svgjs.dev/svgjs" width="2000" height="2250" viewBox="0 0 2000 2250"><g transform="matrix(1,0,0,1,3.410605131648481e-13,0)"><svg viewBox="0 0 320 360" data-background-color="#ffffff" preserveAspectRatio="xMidYMid meet" height="2250" width="2000" xmlns="http://www.w3.org/2000/svg" xmlns:xlink="http://www.w3.org/1999/xlink"><g id="tight-bounds" transform="matrix(1,0,0,1,0,0)"><svg viewBox="0 0 320 360" height="360" width="320"><g><svg></svg></g><g><svg viewBox="0 0 320 360" height="360" width="320"><g><path d="M20.961 227.22l3.726 4.658-1.863-6.056c-0.466-2.795-3.726 0.466-1.863 1.398M25.153 224.425c1.397 2.329 2.795 4.658 2.795 6.987 0 3.261 2.795 4.658 5.123 5.589-3.261-3.726-5.124-13.974-7.918-12.576M204.017 26.929c7.918 0 15.371-0.932 23.756 0.931 20.495 5.124 37.729 15.371 49.374 29.811l32.606 52.169c1.397 13.042 4.192 27.482 3.726 43.319 3.261 0 2.795-4.658 6.521-5.59-3.726 9.316-5.59 20.961-6.521 34.469-2.329-7.453 0-18.632 0.466-24.687-3.261 5.124-5.124 1.397-5.124-0.932 0.466-3.726-1.397-3.261-2.795-4.658-5.124-4.658-8.384-9.782-12.11-17.7 2.329-6.055 2.795-14.905-4.658-19.563-2.329-1.397-5.124-3.726-6.521-7.453-1.863-5.124-5.124-11.179-4.193-19.097 0.466-2.329-6.987 5.124-11.179 1.863-18.166-12.576-36.332-27.016-58.224-39.127-11.645 0-20.029-4.192-24.221-9.316-3.726-4.658-0.932-10.713 4.658-11.179 3.261 0 6.987-0.932 9.782 0.932 0.466-1.863 2.329-4.192 4.657-4.192M157.904 16.215l0.932 0.466c4.658 0.932 6.987 7.453 12.11 5.124 0 3.261 0.466 6.521-0.466 8.85-1.397 3.726-5.59 3.726-8.85 3.726-31.208-1.863-49.374 11.179-68.471 22.358-5.124 3.261-10.713 5.59-14.906 9.782-20.029 18.632-41.921 35.866-47.045 70.335l-4.192 38.195c-0.466 4.192-5.124 8.384-4.192 13.508l3.26 22.824c-3.261-3.261-5.124 0.932-4.192 2.795 0.466 1.397 2.329 6.055 5.124 1.863 3.726 6.987 7.453 20.495 12.576 26.55 15.837 18.632 36.332 35.4 53.101 52.169 4.192-0.932 7.453-0.932 8.384-3.727 1.397 2.795-1.397 5.59-3.726 6.056 7.453 4.658 15.837 8.85 27.016 9.781 14.44 0.932 27.948 3.261 40.524 6.522 6.521-1.863 13.042-2.795 20.029-3.261 2.329 0 3.726-3.726 6.521-4.658l0.466-4.658c2.795 4.192 2.329-1.397 0.466-4.192 3.261 2.795 4.192 5.124 5.589 6.987 0-1.397 3.726-6.521 3.727-0.466l0.931-6.055c1.397-0.932 1.863 5.124 3.261 0.931 1.397-4.192 4.192-0.932 6.987-2.329-0.932 1.863-0.466 5.59 2.794 3.261l3.727-3.261c2.329 5.59 6.055 3.261 7.918 2.329 20.495-13.042 40.99-28.413 60.553-43.784l-0.466 6.055 2.329-7.453c2.329 2.329 4.192 0.466 5.124-0.931 2.795-4.658 6.521-9.316 12.577-13.508-7.453 20.029-16.303 35.866-27.482 48.908l-4.658 5.59c0 3.261-0.932 7.453-4.658 7.918-1.863 0.466-5.59-0.932-8.384 1.863-1.397 1.863 3.261 5.59-0.466 2.795-3.261-2.329-6.521 0-10.248 0.932-2.795 0.932 1.863 3.726 2.795 5.589 0.932 1.863 1.863 3.726 1.398 6.056l-5.124-5.59c-6.055 3.261-9.782 9.316-14.906 13.974-2.329 1.863-1.397 5.124-1.397 7.918-3.261 0-6.987-0.932-8.85 0.932-1.397 1.863-0.932 4.658-0.932 7.453-4.658-0.466-5.124-7.453-9.315-6.056-4.192 0.932-8.85 1.397-12.577 3.727 2.795 5.59-4.658 2.329-3.726 3.26-6.987-4.192-13.042-7.453-20.495-4.658-15.837-5.124-35.4-2.795-49.84-0.931 0-2.329 0.466-4.658-0.466-5.124-0.932 2.329-3.726 1.397-3.26 1.397-8.85-6.055-17.7-9.782-27.016-14.905-8.384 0.932-16.303-3.261-18.632-5.59-6.521-6.055-13.974-2.795-20.029-4.192-13.042-3.261-17.7-16.769-19.098-26.084-0.932-4.658-4.658-6.521-6.055-6.056-6.055-19.563-15.371-37.263-22.824-55.429-1.863-4.658-1.397-9.316-1.397-14.44 2.329 0.932 4.658 0.466 4.192-2.794-2.329-15.371-7.918-27.016-13.974-38.195 3.261-15.837 3.726-34.469 11.179-48.443 6.521-12.576 18.632-19.098 27.016-29.811 2.795-3.726 2.795-8.85 5.59-12.11 9.316-9.316 18.632-19.098 28.879-27.482 4.658-3.726 10.247 0 17.234-1.397 2.329-8.384 11.645-15.837 20.495-13.508 3.726 0.932 11.179-8.85 13.508-9.782 3.726-1.397 1.863 3.726 1.863 6.987 8.85-6.987 20.961-10.713 32.14-14.906" fill="#7406ab" fill-rule="nonzero" stroke="none" stroke-width="1" stroke-linecap="butt" stroke-linejoin="miter" stroke-miterlimit="10" stroke-dasharray="" stroke-dashoffset="0" font-family="none" font-weight="none" font-size="none" text-anchor="none" style="mix-blend-mode: normal" data-fill-palette-color="tertiary"></path></g><g transform="matrix(1,0,0,1,64,149.62399835627696)"><svg viewBox="0 0 192 60.752003287446065" height="60.752003287446065" width="192"><g><svg viewBox="0 0 192 60.752003287446065" height="60.752003287446065" width="192"><g><svg viewBox="0 0 192 60.752003287446065" height="60.752003287446065" width="192"><g><svg viewBox="0 0 192 60.752003287446065" height="60.752003287446065" width="192"><g id="textblocktransform"><svg viewBox="0 0 192 60.752003287446065" height="60.752003287446065" width="192" id="textblock"><g><svg viewBox="0 0 192 60.752003287446065" height="60.752003287446065" width="192"><g transform="matrix(1,0,0,1,0,0)"><svg width="192" viewBox="2.98 -37.55 118.81 37.599999999999994" height="60.752003287446065" data-palette-color="#7406ab"><path d="M27.73-26.39L34.47-26.39Q33.4-23.05 31.96-19.8 30.52-16.55 28.65-13.61 26.78-10.67 24.48-8.17 22.17-5.66 19.37-3.85 16.58-2.03 13.29-0.99 10.01 0.05 6.18 0.05L6.18 0.05Q5.52 0.05 4.93-0.2 4.35-0.44 3.91-0.87 3.47-1.29 3.22-1.87 2.98-2.44 2.98-3.1L2.98-3.1 2.98-26.39 9.33-26.39 9.33-6.54Q11.65-6.54 13.78-7.54 15.92-8.54 17.82-10.19 19.73-11.84 21.35-13.94 22.97-16.04 24.24-18.25 25.51-20.46 26.4-22.58 27.29-24.71 27.73-26.39L27.73-26.39ZM43.19-37.55L43.19-31.81 36.84-31.81 36.84-37.55 43.19-37.55ZM43.19-26.39L43.19 0 36.84 0 36.84-26.39 43.19-26.39ZM72.82-17.5L72.82 0 66.47 0 66.47-17.5Q66.47-18.75 65.82-19.4 65.16-20.04 63.86-20.04L63.86-20.04 55.61-20.04 55.61 0 49.26 0 49.26-23.24Q49.26-23.9 49.51-24.48 49.75-25.05 50.19-25.48 50.63-25.9 51.22-26.15 51.8-26.39 52.46-26.39L52.46-26.39 63.91-26.39Q65.23-26.39 66.74-25.93 68.26-25.46 69.62-24.44L69.62-24.44 69.62-26.39 78.22-26.39Q79.12-26.39 80.12-26.18 81.12-25.98 82.11-25.54 83.1-25.1 84-24.4 84.91-23.71 85.59-22.72 86.27-21.73 86.69-20.43 87.1-19.14 87.1-17.5L87.1-17.5 87.1 0 80.76 0 80.76-17.5Q80.76-18.75 80.13-19.4 79.51-20.04 78.22-20.04L78.22-20.04 72.5-20.04Q72.82-18.87 72.82-17.5L72.82-17.5ZM121.79-26.39L121.79-3.2Q121.79-2.51 121.55-1.93 121.31-1.34 120.88-0.92 120.45-0.49 119.88-0.24 119.3 0 118.64 0L118.64 0 104.29 0Q103.12 0 101.79-0.27 100.46-0.54 99.16-1.14 97.87-1.73 96.66-2.65 95.45-3.56 94.55-4.87 93.64-6.18 93.1-7.89 92.55-9.59 92.55-11.74L92.55-11.74 92.55-26.39 98.89-26.39 98.89-11.74Q98.89-10.5 99.32-9.51 99.75-8.52 100.48-7.81 101.21-7.1 102.2-6.73 103.19-6.35 104.34-6.35L104.34-6.35 115.45-6.35 115.45-26.39 121.79-26.39Z" opacity="1" transform="matrix(1,0,0,1,0,0)" fill="#7406ab" class="wordmark-text-0" data-fill-palette-color="primary" id="text-0"></path></svg></g></svg></g></svg></g></svg></g><g></g></svg></g></svg></g></svg></g></svg></g><defs></defs></svg><rect width="320" height="360" fill="none" stroke="none" visibility="hidden"></rect></g></svg></g></svg>